<?xml version="1.0"?>
<svg version="1.1" xmlns="http://www.w3.org/2000/svg" width="400" height="200"><path fill="#e8c63c" d="M15.98,116.8l0-2.38l2.1-0.84l0-13.16l-2.1-0.84l0-2.38l8.68-0.14l0,2.52l-2.24,0.84l0,4.48l7.336,0l0-4.48l-2.24-0.84l0-2.38l8.68-0.14l0,2.52l-2.1,0.84l0,13.16l2.1,0.84l0,2.38l-8.68,0l0-2.38l2.24-0.84l0-5.32l-7.336,0l0,5.32l2.24,0.84l0,2.38l-8.68,0z M53.76628,110.164l-9.296,0c0.168,2.24,1.456,3.556,3.388,3.556c2.324,0,4.704-1.316,4.704-1.316l1.204,2.324s-2.8,2.352-6.384,2.352c-4.816,0-7.28-2.8-7.28-7.56c0-4.9,2.772-8.12,7.476-8.12c4.172,0,6.356,2.576,6.356,6.58c0,1.064-0.168,2.1-0.168,2.184z M44.52628,107.56l5.068,0c0-1.596-0.672-2.8-2.296-2.8c-1.568,0-2.548,1.148-2.772,2.8z M67.38856,116.8l-0.504-1.82s-2.156,2.1-4.536,2.1c-2.716,0-4.368-1.596-4.368-4.396c0-3.304,2.492-4.62,6.748-4.62l1.96,0l0-1.54c0-1.428-0.756-2.044-2.156-2.044c-1.428,0-2.464,0.42-2.464,0.42l-0.42,1.764l-2.52,0l-0.196-4.144s3.388-1.12,6.076-1.12c4.256,0,5.88,1.484,5.88,5.544l0,6.916l2.1,0.504l0,2.24z M66.68856,110.444l-1.596,0c-2.184,0-3.052,0.56-3.052,1.82c0,1.064,0.588,1.68,1.652,1.68c1.484,0,2.996-1.624,2.996-1.624l0-1.876z M82.66284,113.86l2.52,0.7l0,2.24l-8.988,0l0-2.24l2.24-0.7l0-15.736l-2.24-0.56l0-2.24l6.468-0.224l0,18.76z M98.18912,113.216l1.008,2.128c-1.372,1.008-2.94,1.736-4.76,1.736c-3.22,0-4.144-2.24-4.144-5.46l0-6.44l-2.604,0l0-2.716l2.604-0.364l0-3.864l4.2-0.756l0,4.62l3.92,0l0,3.08l-3.92,0l0,6.16c0,1.792,0.308,2.52,1.484,2.52c0.756,0,1.848-0.448,2.212-0.644z M108.4234,95.1l0,8.204c0.812-0.672,2.632-1.904,4.704-1.904c2.856,0,4.396,1.904,4.396,5.04l0,7.42l1.96,0.7l0,2.24l-7.616,0l0-2.24l1.456-0.672l0-6.776c0-1.4-0.56-2.24-1.848-2.24c-1.568,0-3.052,1.484-3.052,1.484l0,7.504l1.484,0.7l0,2.24l-7.924,0l0-2.24l2.24-0.7l0-15.736l-2.24-0.56l0-2.24z M145.21596,102.324l-2.632,0c-0.168-0.616-0.308-1.204-0.448-1.82c0,0-0.952-0.364-2.52-0.364c-1.792,0-2.66,1.064-2.66,2.212c0,1.68,1.54,2.548,3.22,2.548l8.596,0l0,2.38l-1.96,0.644l0,2.968c0,3.92-2.912,6.244-7.532,6.244c-4.928,0-7.084-2.324-7.084-5.6c0-2.996,2.828-4.676,3.556-5.04c-0.756-0.476-2.968-1.652-2.968-4.424c0-3.556,2.772-5.348,7.056-5.348c2.212,0,4.872,0.868,5.516,1.176z M142.75196,107.924l-2.1,0c-2.268,0-4.116,0.924-4.116,3.024c0,1.792,1.176,2.772,3.024,2.772c1.932,0,3.192-1.12,3.192-3.22l0-2.576z M161.34452,116.8l0-2.38l2.1-0.84l0-13.16l-2.1-0.84l0-2.38l6.44-0.14l7.84,0l0,5.32l-2.604,0l-0.7-1.96l-4.536,0l0,4.9l5.796,0l0,3.08l-5.796,0l0,5.18l2.576,0.84l0,2.38l-9.016,0z M180.9868,97.06c0-1.596,1.148-2.52,2.408-2.52c1.456,0,2.352,0.756,2.352,2.52c0,1.652-1.204,2.548-2.352,2.548c-1.512,0-2.408-0.896-2.408-2.548z M185.6908,113.86l1.96,0.7l0,2.24l-8.4,0l0-2.24l2.24-0.7l0-9.1l-2.24-0.7l0-2.24l6.44-0.14l0,12.18z M197.35308,101.68l0.196,1.932s2.66-2.156,5.152-2.156c2.716,0,4.256,1.932,4.256,4.984l0,7.42l1.96,0.7l0,2.24l-7.7,0l0-2.24l1.54-0.7l0-6.664c0-1.288-0.728-2.24-1.904-2.24c-1.736,0-2.996,1.596-2.996,1.596l0,7.308l1.54,0.7l0,2.24l-7.98,0l0-2.24l2.24-0.7l0-9.1l-2.24-0.7l0-2.24z M222.09136,116.8l-0.504-1.82s-2.156,2.1-4.536,2.1c-2.716,0-4.368-1.596-4.368-4.396c0-3.304,2.492-4.62,6.748-4.62l1.96,0l0-1.54c0-1.428-0.756-2.044-2.156-2.044c-1.428,0-2.464,0.42-2.464,0.42l-0.42,1.764l-2.52,0l-0.196-4.144s3.388-1.12,6.076-1.12c4.256,0,5.88,1.484,5.88,5.544l0,6.916l2.1,0.504l0,2.24z M221.39136,110.444l-1.596,0c-2.184,0-3.052,0.56-3.052,1.82c0,1.064,0.588,1.68,1.652,1.68c1.484,0,2.996-1.624,2.996-1.624l0-1.876z M237.25364,101.68l0.196,1.932s2.66-2.156,5.152-2.156c2.716,0,4.256,1.932,4.256,4.984l0,7.42l1.96,0.7l0,2.24l-7.7,0l0-2.24l1.54-0.7l0-6.664c0-1.288-0.728-2.24-1.904-2.24c-1.736,0-2.996,1.596-2.996,1.596l0,7.308l1.54,0.7l0,2.24l-7.98,0l0-2.24l2.24-0.7l0-9.1l-2.24-0.7l0-2.24z M264.34392,112.236l1.4,2.464c-0.7,0.616-2.884,2.38-6.02,2.38c-4.62,0-7.28-2.856-7.28-7.616c0-4.984,2.8-8.064,7.7-8.064c2.408,0,4.9,0.98,4.9,0.98l-0.14,4.592l-2.52,0l-0.392-1.988s-0.812-0.224-1.932-0.224c-2.016,0-3.276,1.344-3.276,4.144c0,3.052,1.176,4.816,3.5,4.816c1.96,0,3.192-0.98,4.06-1.484z M270.8262,97.06c0-1.596,1.148-2.52,2.408-2.52c1.456,0,2.352,0.756,2.352,2.52c0,1.652-1.204,2.548-2.352,2.548c-1.512,0-2.408-0.896-2.408-2.548z M275.5302,113.86l1.96,0.7l0,2.24l-8.4,0l0-2.24l2.24-0.7l0-9.1l-2.24-0.7l0-2.24l6.44-0.14l0,12.18z M290.80448,116.8l-0.504-1.82s-2.156,2.1-4.536,2.1c-2.716,0-4.368-1.596-4.368-4.396c0-3.304,2.492-4.62,6.748-4.62l1.96,0l0-1.54c0-1.428-0.756-2.044-2.156-2.044c-1.428,0-2.464,0.42-2.464,0.42l-0.42,1.764l-2.52,0l-0.196-4.144s3.388-1.12,6.076-1.12c4.256,0,5.88,1.484,5.88,5.544l0,6.916l2.1,0.504l0,2.24z M290.10448,110.444l-1.596,0c-2.184,0-3.052,0.56-3.052,1.82c0,1.064,0.588,1.68,1.652,1.68c1.484,0,2.996-1.624,2.996-1.624l0-1.876z M306.07876,113.86l2.52,0.7l0,2.24l-8.988,0l0-2.24l2.24-0.7l0-15.736l-2.24-0.56l0-2.24l6.468-0.224l0,18.76z"/><path fill="#" d=""/></svg>
